<?xml version="1.0" standalone="no"?>
<!DOCTYPE svg PUBLIC "-//W3C//DTD SVG 20010904//EN"
 "http://www.w3.org/TR/2001/REC-SVG-20010904/DTD/svg10.dtd">
<svg version="1.0" xmlns="http://www.w3.org/2000/svg"
 width="1129.000000pt" height="464.000000pt" viewBox="0 0 1129.000000 464.000000"
 preserveAspectRatio="xMidYMid meet">

<g transform="translate(0.000000,464.000000) scale(0.100000,-0.100000)"
fill="#000000" stroke="none">
<path d="M0 2320 l0 -2320 5645 0 5645 0 0 2320 0 2320 -5645 0 -5645 0 0
-2320z m5729 1250 c75 -14 176 -57 242 -103 l59 -40 26 19 c15 11 33 24 41 29
30 21 149 -142 193 -265 92 -254 50 -515 -116 -721 -114 -143 -287 -237 -486
-264 -39 -5 -48 -10 -48 -26 0 -17 8 -19 89 -19 92 0 118 -11 105 -43 -9 -24
-33 -26 -252 -24 -179 2 -206 4 -215 19 -8 12 -7 21 2 32 11 13 34 16 106 16
50 0 94 3 98 6 14 14 -8 33 -46 39 -76 12 -187 45 -240 71 -71 36 -190 126
-223 169 l-27 36 34 35 c31 32 32 36 19 57 -68 108 -99 200 -106 320 -23 359
259 662 617 666 42 1 100 -3 128 -9z m-937 -1658 c22 -21 23 -31 26 -194 2
-113 -1 -180 -8 -199 -22 -52 -55 -59 -299 -59 l-221 0 0 238 c0 131 2 241 4
243 2 2 110 2 240 -1 228 -5 236 -6 258 -28z m626 -15 l3 -44 -98 -77 c-54
-42 -139 -109 -190 -149 l-92 -72 190 -3 189 -2 0 -45 0 -45 -265 0 -265 0 0
48 1 47 185 145 185 145 -185 3 -186 2 0 48 0 47 263 -2 262 -1 3 -45z m1564
27 c16 -8 33 -26 38 -40 13 -33 13 -135 0 -168 -17 -45 -42 -51 -240 -56
l-185 -5 -3 -97 -3 -98 -44 0 -45 0 0 238 c0 131 2 241 4 243 2 2 104 3 227 1
172 -3 229 -7 251 -18z m-2774 -26 l-3 -43 -215 -5 -215 -5 0 -145 0 -145 218
-3 218 -2 -3 -43 -3 -42 -233 0 -234 0 -29 33 -29 32 0 176 0 176 31 29 31 29
235 0 234 0 -3 -42z m2179 18 c26 -23 28 -31 32 -110 3 -86 3 -86 -29 -116
-18 -17 -43 -30 -56 -30 -13 0 -24 -3 -24 -7 0 -5 27 -46 60 -93 33 -47 60
-88 60 -92 0 -5 -24 -8 -52 -8 l-53 1 -45 67 c-90 136 -81 129 -180 131 -124
2 -120 6 -120 -105 l0 -94 -45 0 -45 0 0 240 0 240 234 0 c234 0 235 0 263
-24z m1171 -18 l-3 -43 -175 -6 c-96 -3 -176 -6 -177 -7 -2 -1 -3 -62 -3 -135
0 -90 4 -137 12 -145 8 -8 61 -12 175 -12 l162 0 3 98 3 97 43 3 42 3 0 -145
0 -146 -215 0 c-320 0 -318 -2 -313 262 l3 160 33 29 32 29 191 0 190 0 -3
-42z m-2845 -623 c3 42 4 39 5 -20 l1 -70 -39 45 -40 45 0 -42 c0 -24 -4 -43
-10 -43 -6 0 -10 29 -10 68 l0 67 44 -50 45 -50 4 50z m210 38 c-27 -4 -33 -9
-33 -29 0 -20 5 -24 28 -24 20 0 23 -3 13 -9 -8 -5 -20 -7 -28 -4 -9 3 -13 -3
-13 -20 0 -21 5 -26 33 -30 31 -4 31 -4 -5 -5 l-38 -2 0 65 0 65 38 -2 c36 -1
36 -1 5 -5z m202 -48 c10 -24 22 -42 27 -39 10 7 7 45 -7 77 -4 10 -3 17 4 17
6 0 14 -12 17 -26 l7 -27 14 27 c20 39 35 32 16 -8 -9 -21 -13 -41 -8 -53 6
-15 12 -8 31 35 13 28 28 52 34 52 5 0 -2 -26 -16 -57 -14 -32 -28 -64 -31
-71 -4 -9 -10 -6 -21 9 -14 21 -16 21 -28 4 -8 -10 -16 -17 -18 -14 -8 8 -56
113 -56 121 0 21 20 -5 35 -47z m470 6 c10 -28 23 -48 27 -45 11 7 10 52 -2
59 -13 8 -13 35 0 35 5 0 13 -12 16 -26 l7 -27 14 27 c19 36 29 25 13 -13 -7
-17 -9 -39 -5 -48 5 -14 12 -6 30 35 13 28 29 52 34 52 15 0 15 2 -19 -68 -28
-59 -50 -79 -50 -47 0 8 -4 15 -9 15 -5 0 -11 -7 -15 -15 -3 -8 -9 -15 -14
-15 -8 0 -62 103 -62 120 0 25 17 5 35 -39z m415 29 c42 -42 11 -113 -50 -113
-62 0 -92 71 -48 113 28 26 72 26 98 0z m258 -8 c2 -13 -2 -30 -9 -38 -9 -11
-9 -18 -1 -26 15 -15 16 -38 2 -38 -5 0 -12 11 -16 25 -3 14 -12 25 -20 25 -8
0 -14 -10 -14 -25 0 -14 -4 -25 -10 -25 -6 0 -10 29 -10 66 l0 65 38 -3 c30
-2 38 -7 40 -26z m152 -31 c0 -57 1 -60 28 -64 22 -3 20 -4 -10 -6 l-38 -1 0
65 c0 37 4 65 10 65 6 0 10 -26 10 -59z m260 39 c42 -42 17 -105 -45 -112
l-30 -3 -3 68 -3 67 31 0 c17 0 39 -9 50 -20z"/>
<path d="M5513 3510 c-110 -20 -222 -81 -305 -165 -27 -27 -48 -52 -48 -57 0
-4 24 -5 53 -2 52 6 52 6 78 -32 74 -112 93 -136 116 -145 22 -8 57 1 73 20
21 26 93 81 105 81 8 0 28 -20 45 -45 55 -80 169 -136 186 -91 3 8 -6 43 -20
78 -14 36 -26 74 -26 86 0 11 16 41 35 66 41 54 42 64 15 99 -12 16 -20 37
-18 53 3 25 -2 29 -42 41 -60 18 -182 24 -247 13z"/>
<path d="M6085 3380 c-4 -6 8 -27 25 -47 18 -20 47 -68 66 -106 117 -244 70
-531 -118 -718 -117 -116 -251 -177 -410 -186 -159 -9 -299 35 -430 135 -65
51 -88 62 -88 43 0 -20 103 -100 177 -139 100 -51 187 -72 299 -72 119 0 208
21 301 69 179 93 300 242 348 431 22 84 22 245 0 325 -21 77 -75 190 -115 238
-33 38 -44 44 -55 27z"/>
<path d="M5196 2874 c-11 -28 -6 -64 7 -64 8 0 26 -10 40 -23 22 -18 27 -31
27 -66 0 -52 12 -50 52 5 l29 41 -27 56 c-17 34 -36 58 -48 61 -39 11 -74 6
-80 -10z"/>
<path d="M5524 2785 c-10 -8 -34 -15 -51 -15 -32 0 -33 -1 -33 -44 l0 -43 56
-6 c85 -9 107 -37 83 -106 -12 -35 -29 -38 -82 -16 l-35 14 -6 -31 c-4 -23 -2
-34 11 -43 16 -12 13 -15 -25 -31 -23 -10 -42 -24 -42 -30 0 -20 119 -46 211
-46 182 0 341 80 456 229 14 18 23 39 20 47 -9 22 -73 30 -99 11 -13 -9 -44
-15 -73 -15 -48 0 -52 2 -93 50 -48 55 -74 63 -112 30 -34 -29 -86 -18 -125
26 -34 39 -35 39 -61 19z"/>
<path d="M4380 1700 l0 -150 170 0 c200 0 182 -17 178 170 l-3 125 -172 3
-173 2 0 -150z"/>
<path d="M6590 1800 l0 -50 173 2 172 3 0 45 0 45 -172 3 -173 2 0 -50z"/>
<path d="M5980 1800 l0 -50 173 2 172 3 0 45 0 45 -172 3 -173 2 0 -50z"/>
<path d="M5932 1294 c-37 -26 -20 -94 24 -94 53 0 75 64 32 94 -12 9 -25 16
-28 16 -3 0 -16 -7 -28 -16z"/>
<path d="M6216 1303 c-3 -4 -6 -15 -6 -25 0 -24 33 -21 38 3 3 17 -21 33 -32
22z"/>
<path d="M6616 1303 c-3 -4 -6 -28 -6 -55 0 -41 3 -48 19 -48 41 0 69 64 39
87 -19 15 -45 22 -52 16z"/>
</g>
</svg>
