<?xml version="1.0" standalone="no"?>
<!DOCTYPE svg PUBLIC "-//W3C//DTD SVG 20010904//EN"
 "http://www.w3.org/TR/2001/REC-SVG-20010904/DTD/svg10.dtd">
<svg version="1.0" xmlns="http://www.w3.org/2000/svg"
 width="1135.000000pt" height="470.000000pt" viewBox="0 0 1135.000000 470.000000"
 preserveAspectRatio="xMidYMid meet">

<g transform="translate(0.000000,470.000000) scale(0.100000,-0.100000)"
fill="#000000" stroke="none">
<path d="M0 2350 l0 -2350 5675 0 5675 0 0 2350 0 2350 -5675 0 -5675 0 0
-2350z m3933 315 c30 -15 58 -23 71 -19 18 4 28 -2 48 -33 76 -116 62 -267
-33 -362 -39 -39 -122 -81 -161 -81 -18 0 -28 -5 -28 -15 0 -10 11 -15 35 -15
19 0 35 -4 35 -10 0 -6 -35 -10 -85 -10 -50 0 -85 4 -85 10 0 6 18 10 41 10
57 0 46 20 -20 37 -49 12 -151 75 -151 92 0 4 5 12 11 18 9 9 6 24 -12 59 -63
131 3 286 143 335 65 23 123 18 191 -16z m364 -402 c-1 -82 -3 -15 -3 147 0
162 2 229 3 148 2 -82 2 -214 0 -295z m441 341 c12 -8 20 -20 16 -26 -4 -6
-10 -6 -17 1 -6 6 -30 11 -54 11 -73 0 -111 -60 -80 -126 18 -37 66 -57 105
-42 13 4 31 8 40 8 14 -1 12 -4 -7 -20 -60 -51 -171 4 -171 84 0 45 13 74 48
103 32 27 87 30 120 7z m183 -23 c29 -29 39 -47 39 -71 0 -68 -56 -120 -129
-120 l-41 0 -2 88 c-1 93 -1 123 1 135 0 4 22 7 47 7 40 0 51 -5 85 -39z m219
27 c0 -7 -30 -50 -66 -96 -36 -46 -63 -86 -59 -90 3 -3 24 -5 45 -3 45 3 80
-6 80 -20 0 -5 -40 -9 -90 -9 -49 0 -90 3 -90 8 0 4 32 46 71 95 64 80 77 110
46 106 -39 -5 -117 3 -117 11 0 6 37 10 90 10 65 0 90 -3 90 -12z m237 -10
c27 -26 30 -69 6 -94 -16 -16 -16 -19 5 -55 41 -71 22 -83 -21 -14 -21 33 -35
45 -53 45 -22 0 -24 -4 -24 -46 0 -32 -4 -44 -12 -42 -9 3 -14 38 -16 116 l-3
112 48 0 c34 0 53 -6 70 -22z m170 0 c23 -21 31 -71 15 -94 -11 -16 -48 -34
-71 -34 -18 0 -21 -6 -21 -40 0 -29 -4 -40 -15 -40 -12 0 -15 19 -15 115 l0
115 42 0 c29 0 49 -7 65 -22z m218 10 c14 -6 25 -17 25 -25 0 -15 -16 -17 -25
-3 -3 6 -24 10 -46 10 -54 0 -89 -34 -89 -88 0 -55 33 -84 91 -80 40 3 44 6
47 31 3 23 0 27 -22 27 -16 0 -26 6 -26 15 0 10 11 15 35 15 35 0 35 0 35 -46
0 -55 -17 -73 -72 -74 -65 0 -129 76 -113 137 3 15 22 42 41 60 38 35 74 42
119 21z m235 -76 l65 -86 3 87 c2 68 6 87 17 87 12 0 15 -21 15 -115 0 -66 -4
-115 -9 -115 -6 0 -41 39 -78 87 l-68 87 -3 -87 c-2 -64 -6 -87 -15 -84 -18 6
-23 227 -5 227 7 -1 42 -40 78 -88z m290 78 c0 -6 -33 -10 -80 -10 -47 0 -80
4 -80 10 0 6 33 10 80 10 47 0 80 -4 80 -10z m65 -47 c10 -32 21 -69 25 -83 6
-21 11 -13 31 54 26 85 43 104 53 59 4 -15 14 -53 22 -83 l16 -55 23 78 c23
80 30 95 42 84 7 -8 -45 -207 -58 -221 -13 -14 -19 -4 -36 61 -27 103 -30 102
-63 -25 -6 -24 -16 -42 -22 -40 -10 4 -68 186 -68 216 0 32 20 6 35 -45z m380
-18 c10 -41 21 -75 25 -75 4 0 16 32 26 72 11 39 25 73 30 75 9 3 32 -58 49
-131 8 -39 19 -22 41 66 15 63 34 91 34 51 -1 -33 -55 -205 -65 -205 -5 0 -19
32 -30 71 -11 39 -23 71 -26 71 -3 0 -14 -30 -24 -67 -18 -68 -30 -92 -40 -81
-6 5 -65 207 -65 220 0 5 6 8 13 8 8 0 20 -30 32 -75z m431 41 c35 -30 39 -39
39 -79 0 -111 -141 -157 -205 -67 -37 52 -18 134 38 164 45 25 84 20 128 -18z
m169 28 c8 -4 23 -20 31 -36 14 -27 14 -32 -5 -64 l-21 -35 25 -38 c21 -35 23
-51 6 -51 -4 0 -17 20 -31 45 -20 37 -30 45 -52 45 -26 0 -28 -2 -28 -45 0
-25 -4 -45 -10 -45 -6 0 -10 45 -10 115 l0 115 39 0 c22 0 47 -3 56 -6z m107
-96 l3 -103 40 -2 c22 -1 48 -2 58 -2 9 -1 17 -5 17 -11 0 -6 -30 -10 -70 -10
l-70 0 0 115 c0 144 18 154 22 13z m283 69 c33 -29 38 -39 39 -80 1 -40 -4
-51 -31 -79 -28 -28 -39 -32 -85 -33 l-53 0 -3 113 -3 112 49 0 c41 0 55 -5
87 -33z m-1452 -82 c-2 -5 -32 -11 -68 -13 -60 -3 -76 3 -58 22 11 11 128 2
126 -9z m-14 -91 c57 -12 32 -24 -49 -24 -44 0 -80 4 -80 9 0 18 72 26 129 15z
m-1579 -163 c0 -9 5 -22 12 -29 10 -10 5 -11 -20 -6 -23 5 -32 3 -32 -6 0 -8
-3 -11 -6 -7 -11 11 19 75 33 70 7 -3 13 -13 13 -22z m249 19 c-10 -6 -15 -18
-12 -34 3 -13 0 -27 -6 -30 -7 -5 -11 5 -11 28 0 19 -6 37 -12 39 -7 3 3 6 22
6 27 0 31 -2 19 -9z m479 -29 c9 -26 8 -28 -9 -24 -11 3 -26 0 -34 -7 -19 -16
-19 -9 0 36 16 39 28 38 43 -5z m253 -16 c1 -5 5 6 9 25 l7 35 2 -42 c1 -45
-13 -58 -24 -23 -3 11 -15 25 -26 31 -11 5 -17 15 -13 21 7 11 42 -26 45 -47z
m252 47 c-6 -4 -13 -23 -16 -42 l-4 -35 -1 37 c-2 25 -7 38 -19 41 -10 3 -2 5
17 6 19 0 30 -3 23 -7z m383 0 c35 -23 17 -72 -26 -72 -28 0 -30 2 -27 40 2
33 6 40 22 40 11 0 25 -4 31 -8z m264 -28 c7 -19 9 -38 6 -41 -3 -4 -6 -1 -6
5 0 7 -9 12 -20 12 -11 0 -20 -5 -20 -12 0 -6 -3 -9 -6 -5 -8 8 15 77 26 77 5
0 14 -16 20 -36z m-1430 -3 c0 -23 5 -31 23 -34 15 -4 12 -5 -8 -4 -26 2 -30
6 -32 35 -2 17 2 32 7 32 6 0 10 -13 10 -29z m947 -23 c-2 -13 -4 -5 -4 17 -1
22 1 32 4 23 2 -10 2 -28 0 -40z"/>
<path d="M3759 2671 c-39 -13 -71 -31 -102 -60 l-28 -26 28 -5 c17 -3 35 -17
48 -37 23 -37 54 -42 80 -13 19 20 19 20 50 -10 17 -16 39 -30 49 -30 16 0 18
6 12 41 -4 25 -2 46 4 54 7 8 8 28 5 48 -6 29 -12 36 -37 41 -39 8 -76 6 -109
-3z"/>
<path d="M4000 2624 c0 -3 9 -18 20 -34 30 -43 41 -79 41 -141 1 -97 -60 -189
-151 -227 -74 -31 -188 -12 -247 41 -28 25 -43 14 -18 -13 35 -38 105 -64 175
-64 173 1 295 157 256 326 -13 55 -49 118 -67 118 -5 0 -9 -3 -9 -6z"/>
<path d="M3650 2411 c0 -10 7 -21 15 -25 8 -3 15 -15 15 -26 0 -25 16 -26 30
-1 16 31 -4 71 -35 71 -18 0 -25 -5 -25 -19z"/>
<path d="M3768 2383 c-10 -2 -18 -13 -18 -24 0 -11 7 -19 18 -19 27 0 43 -15
36 -34 -4 -11 -13 -15 -25 -11 -13 4 -21 0 -26 -12 -4 -10 -11 -21 -16 -24
-18 -12 3 -27 48 -33 64 -10 142 15 188 59 51 50 49 68 -6 60 -35 -6 -46 -3
-61 14 -15 17 -27 20 -52 15 -18 -3 -34 -1 -38 5 -7 11 -18 12 -48 4z"/>
<path d="M4814 2586 c-3 -7 -4 -48 -2 -92 l3 -79 33 2 c107 5 110 158 4 177
-22 4 -34 1 -38 -8z"/>
<path d="M5297 2593 c-4 -3 -7 -24 -7 -45 0 -37 1 -38 35 -38 28 0 38 5 47 26
11 23 10 29 -11 45 -23 19 -52 25 -64 12z"/>
<path d="M5470 2544 c0 -45 3 -54 18 -54 28 0 62 29 62 54 0 28 -15 42 -52 48
-28 5 -28 5 -28 -48z"/>
<path d="M7030 2570 c-45 -45 -32 -122 25 -146 90 -37 164 63 104 140 -17 21
-29 26 -65 26 -30 0 -50 -6 -64 -20z"/>
<path d="M7267 2593 c-4 -3 -7 -24 -7 -45 0 -38 0 -38 39 -38 40 0 51 11 51
50 0 29 -63 54 -83 33z"/>
<path d="M7624 2586 c-3 -7 -4 -48 -2 -92 l3 -79 35 3 c104 9 106 157 2 176
-22 4 -34 1 -38 -8z"/>
<path d="M4656 2251 c-4 -7 -5 -15 -2 -18 9 -9 19 4 14 18 -4 11 -6 11 -12 0z"/>
<path d="M5376 2245 c-3 -9 0 -15 9 -15 16 0 20 16 6 24 -5 3 -11 -1 -15 -9z"/>
<path d="M6260 2240 c0 -25 4 -31 18 -28 11 2 17 12 17 28 0 16 -6 26 -17 28
-14 3 -18 -3 -18 -28z"/>
<path d="M6530 2245 c0 -8 5 -15 10 -15 6 0 10 7 10 15 0 8 -4 15 -10 15 -5 0
-10 -7 -10 -15z"/>
</g>
</svg>
