<?xml version="1.0" standalone="no"?>
<!DOCTYPE svg PUBLIC "-//W3C//DTD SVG 20010904//EN"
 "http://www.w3.org/TR/2001/REC-SVG-20010904/DTD/svg10.dtd">
<svg version="1.0" xmlns="http://www.w3.org/2000/svg"
 width="370.000000pt" height="269.000000pt" viewBox="0 0 370.000000 269.000000"
 preserveAspectRatio="xMidYMid meet">

<g transform="translate(0.000000,269.000000) scale(0.100000,-0.100000)"
fill="#000000" stroke="none">
<path d="M12 2665 c-9 -19 -12 -358 -12 -1316 0 -1202 1 -1293 17 -1320 l17
-29 1817 0 c1000 0 1824 3 1833 6 14 6 16 133 16 1345 l0 1339 -1838 0 -1839
0 -11 -25z m964 -1140 c12 -8 25 -11 29 -7 5 4 5 -1 2 -11 -5 -13 -2 -17 10
-15 9 2 18 -4 20 -12 4 -13 3 -13 -7 0 -8 12 -9 6 -4 -22 10 -60 -1 -86 -35
-84 -16 1 -33 5 -37 9 -11 10 -74 9 -74 -2 0 -5 6 -11 12 -13 9 -3 7 -10 -6
-24 -19 -18 -19 -19 5 -25 17 -5 19 -7 6 -8 -10 -1 -32 6 -50 14 l-32 16 24
-21 c13 -11 19 -20 14 -20 -18 0 -40 34 -52 81 -11 38 -10 52 3 82 8 20 17 37
20 37 3 0 16 -12 30 -27 20 -21 28 -24 39 -15 11 10 17 9 27 -3 7 -8 16 -15
20 -15 10 0 18 67 9 81 -7 12 -67 8 -104 -5 -13 -5 -11 -2 5 8 32 20 99 20
126 1z m497 -46 c21 -26 21 -38 1 -67 -10 -14 -25 -22 -45 -22 -28 0 -29 1
-29 53 0 30 3 56 6 60 11 11 49 -3 67 -24z m107 24 c0 -3 -16 -27 -35 -54
l-36 -48 38 -4 c35 -3 35 -4 -9 -5 -27 -1 -48 1 -48 4 0 3 16 26 36 50 l36 44
-36 0 c-21 0 -35 4 -32 8 5 9 86 13 86 5z m121 -9 c6 -4 8 -20 5 -39 -4 -19
-2 -36 4 -40 5 -3 10 -12 10 -18 -1 -7 -9 -2 -19 11 -11 12 -29 22 -40 22 -17
0 -21 6 -21 33 0 19 3 36 6 40 7 6 39 2 55 -9z m97 -27 c3 -21 -2 -28 -22 -33
-17 -4 -26 -13 -26 -25 0 -10 -4 -19 -10 -19 -10 0 -14 102 -4 112 3 3 17 3
32 -1 19 -5 28 -15 30 -34z m96 37 c26 -10 18 -21 -12 -16 -35 5 -57 -18 -48
-52 7 -28 42 -44 59 -27 9 9 8 14 -3 21 -18 11 -6 25 15 17 20 -8 19 -43 -1
-51 -28 -11 -51 -6 -68 13 -25 27 -17 72 14 88 30 15 25 14 44 7z m271 -4 c4
-6 -10 -10 -35 -10 -25 0 -39 4 -35 10 3 6 19 10 35 10 16 0 32 -4 35 -10z
m550 -6 c9 -10 13 -23 9 -33 -8 -20 -8 -31 0 -56 6 -18 5 -17 -10 3 -9 12 -22
22 -30 22 -7 0 -15 -10 -17 -22 -2 -13 -5 2 -6 33 0 31 2 59 6 62 11 12 31 8
48 -9z m209 -28 c8 -31 8 -34 -14 -56 -11 -11 -31 -20 -45 -20 -24 0 -25 3
-25 54 0 44 3 55 18 58 26 6 60 -12 66 -36z m-1544 25 c0 -4 -11 -6 -25 -3
-14 2 -32 -1 -40 -8 -35 -29 -2 -86 42 -75 16 4 22 2 18 -5 -10 -15 -46 -12
-67 7 -20 18 -24 63 -6 81 14 14 78 16 78 3z m645 -32 l30 -41 6 44 c6 41 6
40 7 -17 l1 -60 -39 45 -39 45 -4 -45 c-3 -42 -4 -41 -5 13 -1 31 1 57 6 57 4
0 21 -19 37 -41z m196 -19 c4 0 10 14 14 30 9 40 23 38 31 -5 7 -41 19 -38 28
6 3 18 8 30 11 27 8 -7 -17 -108 -26 -108 -4 0 -10 13 -14 30 -9 43 -22 45
-29 5 -9 -47 -19 -44 -34 10 -14 55 -14 83 0 38 6 -18 14 -33 19 -33z m185 5
c6 -17 8 -14 16 18 12 45 24 48 33 7 4 -16 10 -30 15 -30 5 0 11 14 15 30 4
17 10 30 14 30 5 0 1 -25 -7 -55 -8 -30 -19 -55 -23 -55 -4 0 -10 16 -13 35
-8 39 -26 48 -26 13 0 -13 -4 -30 -10 -38 -7 -12 -11 -10 -18 10 -5 14 -12 41
-16 60 -6 35 1 25 20 -25z m218 39 c33 -33 7 -94 -41 -94 -27 0 -63 32 -63 57
0 45 71 71 104 37z m169 -87 c31 -4 31 -4 -5 -5 l-38 -2 2 58 2 57 3 -52 c4
-50 5 -52 36 -56z m-1758 -33 c-8 -20 -18 -35 -20 -32 -3 3 1 18 10 34 8 16
16 45 17 64 l1 35 4 -31 c2 -18 -3 -49 -12 -70z m1113 79 c-10 -2 -26 -2 -35
0 -10 3 -2 5 17 5 19 0 27 -2 18 -5z m-488 -33 c0 -5 -4 -10 -10 -10 -5 0 -10
5 -10 10 0 6 5 10 10 10 6 0 10 -4 10 -10z m493 -17 c-13 -2 -33 -2 -45 0 -13
2 -3 4 22 4 25 0 35 -2 23 -4z m-1156 -58 c0 -8 -4 -12 -9 -9 -5 3 -6 10 -3
15 9 13 12 11 12 -6z m623 -6 c0 -4 -7 -9 -15 -13 -9 -3 -15 0 -15 8 0 7 7 13
15 13 8 0 15 -4 15 -8z m87 -11 c-3 -8 -6 -5 -6 6 -1 11 2 17 5 13 3 -3 4 -12
1 -19z m190 0 c-3 -8 -6 -5 -6 6 -1 11 2 17 5 13 3 -3 4 -12 1 -19z m90 -10
c-3 -7 -5 -2 -5 12 0 14 2 19 5 13 2 -7 2 -19 0 -25z m146 17 c-3 -9 -8 -14
-10 -11 -3 3 -2 9 2 15 9 16 15 13 8 -4z m-1167 -4 c-4 -5 0 -12 6 -14 7 -3
-2 -8 -19 -12 -18 -4 -33 -11 -33 -16 0 -5 -5 -9 -11 -9 -5 0 -8 4 -4 9 3 5
-5 12 -17 14 -13 2 0 6 27 7 33 2 42 4 25 8 l-25 5 25 8 c14 4 26 7 28 8 2 1
1 -3 -2 -8z"/>
<path d="M830 1401 c0 -5 7 -14 15 -21 13 -10 15 -9 15 9 0 12 -6 21 -15 21
-8 0 -15 -4 -15 -9z"/>
<path d="M1410 1446 c0 -38 3 -46 19 -46 26 0 43 24 39 57 -2 22 -9 29 -30 31
-27 3 -28 2 -28 -42z"/>
<path d="M1660 1470 c0 -13 7 -20 20 -20 13 0 20 7 20 20 0 13 -7 20 -20 20
-13 0 -20 -7 -20 -20z"/>
<path d="M1750 1465 c0 -20 4 -26 18 -23 9 2 17 12 17 23 0 11 -8 21 -17 23
-14 3 -18 -3 -18 -23z"/>
<path d="M2670 1470 c0 -23 35 -28 43 -6 7 18 -1 26 -25 26 -11 0 -18 -7 -18
-20z"/>
<path d="M2850 1446 c0 -38 3 -46 19 -46 26 0 43 24 39 57 -2 22 -9 29 -30 31
-27 3 -28 2 -28 -42z"/>
<path d="M2547 1483 c-4 -3 -7 -18 -7 -33 0 -49 42 -66 75 -30 26 29 7 70 -33
70 -16 0 -32 -3 -35 -7z"/>
</g>
</svg>
