<?xml version="1.0" standalone="no"?>
<!DOCTYPE svg PUBLIC "-//W3C//DTD SVG 20010904//EN"
 "http://www.w3.org/TR/2001/REC-SVG-20010904/DTD/svg10.dtd">
<svg version="1.0" xmlns="http://www.w3.org/2000/svg"
 width="1137.000000pt" height="470.000000pt" viewBox="0 0 1137.000000 470.000000"
 preserveAspectRatio="xMidYMid meet">

<g transform="translate(0.000000,470.000000) scale(0.100000,-0.100000)"
fill="#000000" stroke="none">
<path d="M0 2350 l0 -2350 5685 0 5685 0 0 2350 0 2350 -5685 0 -5685 0 0
-2350z m3962 315 c30 -15 58 -23 72 -19 18 4 28 -2 48 -33 99 -150 45 -342
-117 -419 -27 -13 -62 -24 -77 -24 -18 0 -28 -5 -28 -15 0 -10 11 -15 35 -15
19 0 35 -4 35 -10 0 -6 -35 -10 -85 -10 -50 0 -85 4 -85 10 0 6 18 10 41 10
56 0 46 20 -20 36 -48 13 -132 61 -146 85 -4 5 -1 16 5 24 9 11 8 24 -8 57
-32 66 -36 109 -17 173 22 77 81 140 155 166 67 24 122 19 192 -16z m365 -402
c-1 -82 -3 -15 -3 147 0 162 2 229 3 148 2 -82 2 -214 0 -295z m444 347 c28
-16 25 -44 -3 -35 -13 4 -37 9 -55 12 -73 11 -116 -100 -57 -146 28 -22 88
-28 99 -11 9 15 35 12 35 -5 0 -34 -106 -49 -146 -20 -33 22 -57 81 -48 118 9
42 32 77 58 87 30 12 94 12 117 0z m185 -24 c45 -45 48 -108 8 -155 -28 -33
-92 -56 -130 -47 -24 6 -24 9 -24 121 l0 115 56 0 c50 0 59 -3 90 -34z m224
24 c0 -6 -31 -51 -70 -100 l-70 -89 68 -3 c52 -2 67 -6 67 -18 0 -21 -174 -25
-182 -5 -2 8 25 52 61 98 36 47 66 88 66 91 0 3 -29 6 -65 6 -51 0 -65 3 -65
15 0 12 17 15 95 15 58 0 95 -4 95 -10z m239 -16 c26 -33 26 -55 2 -85 -19
-24 -19 -24 6 -67 18 -30 23 -46 15 -54 -7 -7 -22 5 -47 41 -46 64 -69 65 -73
3 -2 -28 -8 -42 -18 -42 -11 0 -14 21 -14 115 l0 115 54 0 c47 0 57 -4 75 -26z
m170 0 c12 -15 21 -37 21 -49 0 -34 -35 -72 -75 -79 -32 -6 -35 -10 -35 -41 0
-24 -5 -35 -15 -35 -12 0 -15 19 -15 115 l0 115 49 0 c42 0 53 -4 70 -26z
m216 14 c32 -15 35 -43 3 -33 -64 20 -87 18 -118 -13 -45 -45 -35 -109 20
-132 44 -18 74 -10 78 23 3 23 0 27 -22 27 -17 0 -26 6 -26 16 0 12 9 14 43
12 42 -3 42 -3 45 -46 4 -55 -15 -71 -81 -72 -43 0 -53 4 -84 35 -33 33 -35
38 -31 87 4 42 11 57 37 80 34 31 89 37 136 16z m226 -69 l64 -82 3 82 c2 63
6 81 17 81 12 0 15 -21 15 -115 0 -89 -3 -115 -13 -115 -8 0 -43 37 -78 83
l-64 82 -3 -82 c-2 -65 -6 -83 -17 -83 -12 0 -15 21 -15 115 0 90 3 115 14
115 7 0 42 -37 77 -81z m289 66 c0 -12 -16 -15 -80 -15 -64 0 -80 3 -80 15 0
12 16 15 80 15 64 0 80 -3 80 -15z m61 -2 c0 -10 8 -43 18 -73 20 -59 21 -59
46 33 25 88 41 79 71 -46 11 -48 22 -39 40 33 18 67 44 96 44 48 -1 -34 -54
-209 -64 -211 -13 -3 -23 19 -44 93 l-18 65 -19 -75 c-29 -109 -45 -106 -78
18 -15 54 -27 106 -27 115 0 23 30 22 31 0z m378 -20 c5 -21 13 -50 17 -66 11
-47 21 -39 39 33 14 56 21 70 36 70 11 0 19 -7 19 -17 0 -10 9 -45 19 -78 18
-57 19 -59 26 -30 18 78 38 125 51 125 18 0 19 1 -16 -120 -16 -58 -30 -106
-30 -107 0 -2 -6 -3 -14 -3 -9 0 -20 25 -31 65 -10 36 -21 68 -26 70 -4 3 -15
-27 -24 -66 -24 -98 -42 -91 -76 31 -32 112 -34 130 -14 130 8 0 18 -16 24
-37z m427 21 c33 -22 54 -64 54 -110 0 -28 -8 -44 -34 -70 -29 -29 -41 -34
-81 -34 -88 0 -142 72 -115 154 22 67 116 99 176 60z m197 2 c26 -20 33 -78
13 -99 -21 -20 -20 -36 4 -67 23 -30 26 -50 5 -50 -8 0 -26 20 -41 45 -35 60
-62 61 -66 3 -2 -31 -8 -44 -20 -46 -16 -3 -18 7 -18 112 l0 116 53 0 c28 0
60 -7 70 -14z m87 -86 l0 -100 59 0 c59 0 86 -14 60 -31 -16 -10 -109 -12
-133 -3 -23 9 -24 234 -1 234 12 0 15 -18 15 -100z m264 90 c35 -13 66 -66 66
-112 0 -54 -49 -103 -112 -112 -27 -4 -52 -4 -58 -1 -6 4 -10 55 -10 121 l0
114 44 0 c25 0 56 -4 70 -10z m-1424 -105 c0 -12 -14 -15 -70 -15 -56 0 -70 3
-70 15 0 12 14 15 70 15 56 0 70 -3 70 -15z m10 -99 c0 -20 -23 -26 -94 -26
-67 0 -78 4 -69 26 7 20 163 20 163 0z m-1654 -154 c-7 -22 4 -38 29 -45 13
-3 9 -5 -12 -6 -32 -1 -33 0 -33 40 0 25 4 38 10 34 6 -4 8 -14 6 -23z m151
-34 c-2 -13 -4 -3 -4 22 0 25 2 35 4 23 2 -13 2 -33 0 -45z m163 53 c0 -5 -9
-7 -20 -4 -28 8 -25 -12 5 -25 16 -7 23 -17 19 -27 -7 -17 -49 -21 -59 -5 -4
7 2 9 19 4 34 -8 35 13 1 26 -25 9 -31 21 -18 33 10 10 53 8 53 -2z m167 -2
c-12 -7 -15 -17 -11 -33 3 -13 1 -27 -5 -30 -7 -5 -11 5 -11 28 0 19 -6 37
-12 39 -7 3 3 6 22 6 29 0 32 -2 17 -10z m183 -25 c7 -19 9 -38 6 -41 -3 -4
-6 -1 -6 5 0 7 -9 12 -20 12 -11 0 -20 -5 -20 -12 0 -6 -3 -9 -6 -5 -8 8 15
77 26 77 5 0 14 -16 20 -36z m304 14 c15 -25 -3 -52 -38 -56 -24 -3 -26 -1
-26 38 0 39 2 41 26 38 15 -2 32 -11 38 -20z m164 15 c-32 -5 -38 -23 -8 -23
11 0 20 -5 20 -10 0 -6 -7 -10 -16 -8 -10 2 -19 -2 -21 -9 -2 -6 8 -13 24 -16
27 -4 27 -4 -4 -6 -32 -1 -33 0 -33 39 0 39 1 40 33 39 30 -2 30 -2 5 -6z
m265 -30 c-8 -52 -13 -54 -13 -5 0 23 4 42 9 42 6 0 7 -17 4 -37z m66 -5 l-2
-43 -6 35 -6 35 -13 -34 c-7 -19 -14 -32 -17 -29 -8 8 24 78 35 78 6 0 9 -19
9 -42z m169 35 c-33 -5 -38 -23 -6 -23 12 0 18 -3 14 -7 -4 -5 -13 -8 -18 -8
-25 0 -17 -24 9 -28 27 -4 27 -4 -4 -6 -32 -1 -33 0 -33 39 0 39 1 40 33 39
30 -2 30 -2 5 -6z m207 -3 c3 -5 1 -18 -4 -28 -7 -13 -7 -22 1 -30 8 -8 9 -12
1 -12 -6 0 -13 7 -17 15 -8 21 -34 19 -39 -2 -3 -10 -5 1 -6 25 -1 40 0 42 28
42 17 0 33 -4 36 -10z m121 -31 c-5 -46 -16 -47 -16 0 0 25 4 40 10 36 5 -3 8
-19 6 -36z m152 34 c-12 -3 -19 -15 -20 -36 l-1 -32 -4 32 c-3 19 -11 34 -21
36 -9 3 1 5 23 5 22 0 32 -2 23 -5z m192 -8 c26 -32 -13 -81 -47 -59 -35 22
-23 74 17 74 10 0 23 -7 30 -15z m190 6 c0 -5 -9 -7 -20 -4 -11 3 -20 1 -20
-5 0 -6 9 -14 20 -17 30 -9 26 -45 -4 -45 -14 0 -27 4 -30 9 -3 4 6 6 19 3 33
-6 33 16 0 28 -25 9 -31 21 -18 33 10 10 53 8 53 -2z"/>
<path d="M3789 2671 c-52 -16 -119 -62 -119 -83 0 -4 10 -8 23 -8 14 -1 29
-13 42 -33 25 -39 50 -45 79 -18 l22 21 29 -30 c16 -17 37 -30 48 -30 17 0 19
5 13 41 -4 25 -2 46 5 55 18 21 1 74 -28 85 -28 11 -77 11 -114 0z"/>
<path d="M4030 2624 c0 -3 10 -20 22 -37 52 -73 53 -192 1 -269 -80 -119 -237
-148 -348 -64 -43 33 -66 34 -35 1 41 -43 100 -65 179 -66 102 -1 172 37 228
125 48 75 47 203 -3 279 -21 32 -44 49 -44 31z"/>
<path d="M3680 2411 c0 -10 7 -21 15 -25 8 -3 15 -15 15 -26 0 -25 16 -26 30
-1 16 31 -4 71 -35 71 -18 0 -25 -5 -25 -19z"/>
<path d="M3798 2383 c-10 -2 -18 -13 -18 -24 0 -11 7 -19 18 -19 27 0 43 -15
36 -33 -4 -12 -13 -15 -30 -11 -19 5 -24 2 -24 -14 0 -11 -6 -22 -12 -25 -10
-4 -10 -7 -1 -18 21 -22 132 -16 186 10 48 23 87 63 87 88 0 12 -9 13 -41 8
-34 -6 -44 -3 -65 16 -19 18 -29 21 -42 13 -19 -11 -52 -7 -52 7 0 9 -12 10
-42 2z"/>
<path d="M4850 2505 l0 -85 29 0 c39 0 81 43 81 84 0 40 -44 86 -83 86 l-27 0
0 -85z"/>
<path d="M5320 2550 c0 -40 1 -41 31 -38 18 2 37 11 43 21 16 25 -4 51 -43 55
-30 3 -31 2 -31 -38z"/>
<path d="M5500 2545 c0 -40 2 -45 23 -45 29 0 47 18 47 45 0 27 -18 45 -47 45
-21 0 -23 -5 -23 -45z"/>
<path d="M7065 2565 c-36 -35 -35 -96 1 -124 40 -31 87 -28 118 10 34 40 33
74 -3 110 -38 37 -82 39 -116 4z"/>
<path d="M7300 2550 c0 -38 2 -40 30 -40 36 0 56 30 40 60 -7 13 -21 20 -40
20 -28 0 -30 -2 -30 -40z"/>
<path d="M7650 2505 l0 -85 34 0 c47 0 90 50 82 94 -8 40 -49 76 -87 76 l-29
0 0 -85z"/>
<path d="M5300 2245 c0 -8 5 -15 10 -15 6 0 10 7 10 15 0 8 -4 15 -10 15 -5 0
-10 -7 -10 -15z"/>
<path d="M5580 2240 c0 -32 19 -40 39 -16 15 18 3 46 -20 46 -14 0 -19 -7 -19
-30z"/>
<path d="M6450 2255 c0 -8 9 -15 20 -15 11 0 20 7 20 15 0 8 -9 15 -20 15 -11
0 -20 -7 -20 -15z"/>
<path d="M6916 2255 c-8 -22 4 -45 24 -45 20 0 32 23 24 45 -4 8 -14 15 -24
15 -10 0 -20 -7 -24 -15z"/>
</g>
</svg>
