<?xml version="1.0" standalone="no"?>
<!DOCTYPE svg PUBLIC "-//W3C//DTD SVG 20010904//EN"
 "http://www.w3.org/TR/2001/REC-SVG-20010904/DTD/svg10.dtd">
<svg version="1.0" xmlns="http://www.w3.org/2000/svg"
 width="1136.000000pt" height="470.000000pt" viewBox="0 0 1136.000000 470.000000"
 preserveAspectRatio="xMidYMid meet">

<g transform="translate(0.000000,470.000000) scale(0.100000,-0.100000)"
fill="#000000" stroke="none">
<path d="M0 2350 l0 -2350 5680 0 5680 0 0 2350 0 2350 -5680 0 -5680 0 0
-2350z m3925 295 c28 -14 58 -22 70 -19 17 4 27 -3 47 -33 70 -107 63 -237
-18 -331 -38 -45 -123 -92 -166 -92 -15 0 -28 -4 -28 -10 0 -5 13 -10 29 -10
17 0 33 -4 36 -10 4 -6 -26 -10 -81 -10 -54 0 -84 4 -79 9 6 5 26 11 45 13 39
4 31 9 -43 28 -59 16 -138 82 -120 101 9 9 7 21 -10 53 -30 57 -30 155 0 212
24 46 72 90 118 110 51 22 145 17 200 -11z m362 -382 c-1 -76 -3 -14 -3 137 0
151 2 213 3 138 2 -76 2 -200 0 -275z m444 318 c29 -24 18 -38 -16 -23 -38 17
-76 14 -105 -8 -35 -27 -36 -103 -1 -131 25 -20 85 -25 111 -10 23 15 33 1 14
-20 -22 -24 -100 -26 -132 -3 -28 19 -52 65 -52 99 0 87 117 148 181 96z m165
3 c50 -34 67 -99 39 -154 -23 -44 -53 -60 -112 -60 l-53 0 0 115 0 115 50 0
c30 0 61 -7 76 -16z m244 8 c0 -5 -31 -48 -69 -97 -39 -49 -68 -92 -65 -97 3
-4 34 -8 70 -8 36 0 64 -4 64 -10 0 -6 -39 -10 -96 -10 -78 0 -95 3 -91 14 3
8 35 52 72 99 l66 86 -67 3 c-43 2 -69 8 -72 16 -3 9 20 12 92 12 53 0 96 -4
96 -8z m235 -12 c23 -25 24 -74 2 -98 -15 -17 -15 -21 8 -57 28 -47 30 -55 11
-55 -8 0 -26 20 -40 45 -20 34 -33 45 -51 45 -23 0 -25 -4 -25 -45 0 -33 -4
-45 -15 -45 -12 0 -15 19 -15 115 l0 115 53 0 c41 0 58 -5 72 -20z m170 -5
c48 -47 19 -119 -50 -127 -27 -3 -30 -7 -33 -40 -2 -25 -8 -38 -18 -38 -11 0
-14 22 -14 115 l0 115 45 0 c35 0 52 -6 70 -25z m228 11 c9 -7 17 -18 17 -25
0 -14 -27 -15 -35 -1 -3 6 -21 10 -40 10 -78 0 -118 -89 -65 -145 18 -19 33
-25 67 -25 41 0 43 1 43 30 0 25 -4 30 -25 30 -16 0 -25 6 -25 16 0 12 9 14
38 12 36 -3 37 -4 40 -48 4 -55 -13 -70 -78 -70 -100 0 -152 115 -86 189 11
13 30 27 41 31 31 13 88 11 108 -4z m222 -66 c33 -44 63 -79 68 -80 4 0 7 36
7 80 0 64 3 80 15 80 12 0 15 -19 15 -115 0 -90 -3 -115 -14 -115 -7 0 -42 37
-77 81 l-64 82 -3 -82 c-2 -63 -6 -81 -17 -81 -12 0 -15 21 -15 115 0 86 3
115 13 114 6 0 39 -36 72 -79z m293 68 c-3 -9 -29 -13 -83 -13 -54 0 -80 4
-82 13 -4 9 17 12 82 12 65 0 86 -3 83 -12z m76 -67 c10 -39 22 -68 26 -64 4
4 15 38 25 76 10 38 23 67 30 67 7 0 20 -29 30 -67 10 -38 21 -72 25 -76 4 -4
16 25 26 64 11 40 25 74 32 77 18 6 15 -21 -15 -130 -34 -120 -48 -124 -76
-20 -11 40 -22 71 -24 68 -3 -2 -13 -35 -22 -73 -25 -100 -41 -95 -74 24 -30
107 -33 137 -15 131 7 -3 21 -37 32 -77z m365 41 c6 -21 14 -53 17 -70 4 -18
10 -35 15 -38 7 -4 13 11 37 106 14 57 34 43 58 -40 24 -83 27 -82 55 28 7 29
18 52 26 52 18 0 17 -12 -16 -125 -18 -62 -34 -100 -42 -100 -8 0 -22 30 -34
74 -12 41 -24 70 -27 65 -3 -5 -13 -39 -23 -76 -28 -105 -41 -92 -85 82 -6 25
-13 53 -16 63 -4 11 0 17 10 17 9 0 19 -15 25 -38z m445 4 c31 -29 36 -39 36
-81 0 -40 -5 -52 -34 -81 -29 -29 -41 -34 -81 -34 -40 0 -52 5 -81 34 -26 26
-34 42 -34 70 0 75 49 125 122 126 28 0 45 -8 72 -34z m184 18 c27 -19 30 -78
6 -105 -15 -17 -15 -21 5 -52 11 -19 21 -39 21 -46 0 -23 -19 -9 -47 34 -20
32 -35 45 -50 45 -21 0 -23 -5 -23 -45 0 -33 -4 -45 -15 -45 -12 0 -15 19 -15
115 l0 115 48 0 c27 0 57 -7 70 -16z m92 -89 l0 -105 60 0 c33 0 60 -4 60 -10
0 -6 -32 -10 -75 -10 l-75 0 0 115 c0 96 3 115 15 115 12 0 15 -18 15 -105z
m277 83 c43 -30 59 -77 44 -128 -16 -55 -42 -73 -111 -78 l-60 -4 0 116 0 116
47 0 c32 0 57 -7 80 -22z m-1447 -93 c0 -12 -14 -15 -70 -15 -56 0 -70 3 -70
15 0 12 14 15 70 15 56 0 70 -3 70 -15z m10 -105 c0 -6 -35 -10 -86 -10 -54 0
-83 4 -79 10 3 6 42 10 86 10 46 0 79 -4 79 -10z m-1620 -109 c0 -5 -9 -7 -20
-4 -11 3 -20 1 -20 -5 0 -5 12 -13 26 -16 17 -5 24 -12 22 -24 -4 -20 -46 -29
-62 -12 -8 9 -4 10 17 5 34 -9 36 8 2 23 -25 12 -31 23 -18 35 10 10 53 8 53
-2z m210 -56 c10 0 16 12 18 33 4 39 22 43 22 5 0 -39 -13 -55 -41 -51 -20 2
-24 9 -26 43 l-1 40 6 -35 c4 -22 13 -35 22 -35z m282 37 c6 -43 0 -52 -38
-52 -33 0 -34 1 -34 40 0 39 1 40 34 40 29 0 34 -4 38 -28z m216 1 l10 -28 7
28 c11 43 35 34 35 -13 0 -41 -20 -58 -21 -17 0 21 -1 21 -11 -3 l-10 -25 -14
30 -13 30 -1 -27 c0 -16 -4 -28 -10 -28 -5 0 -10 18 -10 40 0 48 23 55 38 13z
m247 6 c-10 -15 5 -49 20 -49 8 0 17 12 21 28 10 46 13 49 11 7 -2 -37 -4 -40
-32 -40 -28 0 -30 3 -33 39 -2 25 0 36 7 31 6 -3 9 -11 6 -16z m266 -6 l14
-26 6 29 c6 25 7 24 8 -13 1 -50 -8 -54 -31 -15 l-17 27 -1 -29 c0 -18 -4 -26
-9 -20 -10 10 -3 74 8 74 4 0 14 -12 22 -27z m274 -13 c0 -32 -3 -35 -32 -38
-32 -3 -33 -3 -33 38 0 41 1 41 33 38 29 -3 32 -6 32 -38z m259 18 c16 -26 -4
-53 -40 -53 -23 0 -30 5 -32 23 -2 13 -1 30 2 38 8 20 56 14 70 -8z"/>
<path d="M3730 2634 c-37 -16 -80 -52 -80 -66 0 -4 9 -8 19 -8 11 0 29 -13 41
-30 23 -33 50 -39 70 -15 17 21 25 19 54 -10 14 -14 34 -25 46 -25 23 0 23 0
9 36 -7 21 -7 34 2 51 9 17 10 32 3 51 -9 25 -14 27 -69 29 -37 2 -73 -3 -95
-13z"/>
<path d="M4000 2605 c0 -5 11 -32 25 -59 109 -215 -140 -436 -340 -300 -39 26
-65 24 -30 -3 67 -51 187 -69 259 -39 118 49 183 191 142 312 -16 47 -55 110
-56 89z"/>
<path d="M3660 2401 c0 -10 7 -21 15 -25 8 -3 15 -12 15 -21 0 -8 4 -15 9 -15
13 0 21 28 14 48 -13 34 -53 45 -53 13z"/>
<path d="M3767 2373 c-26 -7 -17 -36 13 -43 30 -7 33 -34 5 -38 -20 -3 -49
-48 -37 -56 50 -29 153 -9 211 41 56 48 55 67 -4 59 -38 -6 -46 -4 -57 13 -10
17 -19 19 -50 14 -25 -4 -38 -2 -38 6 0 11 -11 12 -43 4z"/>
<path d="M4800 2486 c0 -47 5 -88 10 -91 17 -10 79 15 95 38 40 57 -2 137 -71
137 l-34 0 0 -84z"/>
<path d="M5280 2530 c0 -39 1 -40 35 -40 41 0 62 28 45 60 -8 14 -21 20 -45
20 -34 0 -35 -1 -35 -40z"/>
<path d="M5460 2525 c0 -43 1 -45 28 -45 33 0 52 16 52 45 0 29 -19 45 -52 45
-27 0 -28 -2 -28 -45z"/>
<path d="M7035 2545 c-31 -30 -33 -82 -4 -119 28 -35 95 -37 126 -3 54 57 15
147 -62 147 -25 0 -44 -8 -60 -25z"/>
<path d="M7270 2530 c0 -39 1 -40 35 -40 41 0 62 28 45 60 -8 14 -21 20 -45
20 -34 0 -35 -1 -35 -40z"/>
<path d="M7630 2480 c0 -49 3 -90 8 -90 29 0 84 24 97 43 37 53 -6 137 -71
137 l-34 0 0 -90z"/>
<path d="M5110 2260 c0 -5 7 -10 15 -10 8 0 15 5 15 10 0 6 -7 10 -15 10 -8 0
-15 -4 -15 -10z"/>
<path d="M5110 2225 c0 -8 6 -15 14 -15 22 0 28 17 10 24 -22 9 -24 8 -24 -9z"/>
<path d="M6120 2240 c0 -33 11 -38 30 -15 15 18 6 45 -15 45 -10 0 -15 -10
-15 -30z"/>
<path d="M6364 2256 c-9 -24 4 -48 23 -44 12 2 18 12 18 28 0 29 -32 41 -41
16z"/>
</g>
</svg>
