<?xml version="1.0" standalone="no"?>
<!DOCTYPE svg PUBLIC "-//W3C//DTD SVG 20010904//EN"
 "http://www.w3.org/TR/2001/REC-SVG-20010904/DTD/svg10.dtd">
<svg version="1.0" xmlns="http://www.w3.org/2000/svg"
 width="1131.000000pt" height="464.000000pt" viewBox="0 0 1131.000000 464.000000"
 preserveAspectRatio="xMidYMid meet">

<g transform="translate(0.000000,464.000000) scale(0.100000,-0.100000)"
fill="#000000" stroke="none">
<path d="M3728 2656 c-21 -7 -49 -21 -63 -30 -33 -22 -81 -88 -96 -133 -16
-50 -6 -145 21 -190 20 -33 20 -38 6 -49 -14 -10 -13 -14 11 -39 32 -31 102
-69 153 -81 l35 -8 -39 -6 c-22 -3 -41 -11 -44 -17 -3 -10 20 -13 93 -13 73 0
96 3 92 13 -2 6 -18 12 -35 13 -42 0 -51 12 -16 19 159 34 249 140 248 290 -1
76 -18 124 -59 174 -23 26 -30 29 -47 20 -13 -7 -23 -7 -27 -1 -26 40 -166 63
-233 38z m163 -43 c8 -22 7 -34 -5 -54 -13 -21 -13 -32 -4 -57 7 -17 9 -34 6
-37 -9 -9 -50 14 -66 37 -17 23 -34 23 -57 -2 -26 -28 -40 -25 -65 15 -16 25
-29 35 -48 35 l-25 0 24 26 c42 45 88 63 162 64 65 0 68 -1 78 -27z m164 -104
c65 -183 -75 -362 -271 -346 -68 5 -152 45 -162 77 -3 9 9 4 31 -13 105 -80
237 -73 328 17 46 45 79 118 79 175 0 40 -28 127 -45 141 -8 7 -15 19 -15 28
0 24 38 -31 55 -79z m-370 -125 c19 -19 16 -55 -4 -62 -9 -3 -11 0 -6 8 5 8
-1 19 -15 30 -13 10 -20 22 -16 29 10 15 22 14 41 -5z m159 -46 c20 9 27 7 42
-10 15 -15 27 -19 55 -15 55 7 65 -4 34 -41 -37 -44 -101 -72 -166 -72 -56 0
-90 12 -70 24 6 4 11 15 11 25 0 14 6 17 26 13 22 -4 25 -2 22 19 -2 15 -12
25 -27 29 -33 8 -38 28 -9 39 16 6 28 4 41 -7 13 -12 22 -13 41 -4z"/>
<path d="M4280 2380 c0 -187 4 -290 10 -290 6 0 10 103 10 290 0 187 -4 290
-10 290 -6 0 -10 -103 -10 -290z"/>
<path d="M4610 2573 c-35 -24 -48 -43 -55 -80 -7 -41 14 -94 48 -116 47 -31
147 -18 147 20 0 11 -6 14 -22 8 -61 -19 -86 -17 -112 9 -55 54 -15 154 57
143 18 -3 42 -8 55 -12 16 -6 22 -3 22 8 0 37 -96 51 -140 20z"/>
<path d="M4770 2476 c0 -131 3 -134 81 -117 63 14 99 57 99 117 0 39 -5 51
-34 80 -31 31 -40 34 -90 34 l-56 0 0 -114z m103 72 c48 -25 61 -74 30 -118
-23 -33 -33 -40 -65 -40 l-28 0 0 85 c0 79 1 85 21 85 11 0 30 -5 42 -12z"/>
<path d="M4950 2575 c0 -11 17 -15 69 -17 l69 -3 -69 -85 c-38 -47 -68 -92
-67 -100 2 -11 21 -16 73 -18 80 -3 118 4 112 21 -2 7 -31 14 -69 17 l-66 5
69 87 c38 48 69 92 69 98 0 6 -36 10 -95 10 -77 0 -95 -3 -95 -15z"/>
<path d="M5250 2475 c0 -94 3 -115 14 -115 10 0 16 14 18 43 2 34 7 42 23 42
12 0 30 -17 48 -42 15 -24 35 -43 43 -43 19 0 18 9 -10 55 -23 37 -23 41 -9
58 22 23 21 72 -2 97 -14 15 -31 20 -72 20 l-53 0 0 -115z m94 79 c9 -4 16
-18 16 -34 0 -29 -15 -40 -56 -40 -21 0 -24 4 -24 40 0 36 3 40 24 40 13 0 31
-3 40 -6z"/>
<path d="M5430 2475 c0 -96 3 -115 15 -115 10 0 15 10 15 34 0 31 4 35 33 41
71 15 98 76 56 129 -17 22 -28 26 -70 26 l-49 0 0 -115z m94 64 c23 -34 3 -69
-41 -69 -21 0 -23 5 -23 45 0 41 2 45 24 45 14 0 31 -9 40 -21z"/>
<path d="M5628 2561 c-30 -27 -33 -35 -33 -86 0 -51 3 -59 33 -86 26 -24 41
-29 81 -29 60 0 81 20 81 78 l0 42 -45 0 c-33 0 -45 -4 -45 -15 0 -9 10 -15
26 -15 22 0 25 -4 22 -27 -2 -23 -8 -29 -36 -31 -25 -3 -39 3 -63 28 -26 26
-30 36 -25 63 12 62 72 92 131 65 33 -15 43 -4 20 22 -29 33 -106 28 -147 -9z"/>
<path d="M5900 2475 c0 -96 3 -115 15 -115 12 0 15 16 15 81 0 95 1 95 81 -12
72 -98 79 -94 79 46 0 94 -3 115 -15 115 -11 0 -15 -18 -17 -82 l-3 -83 -63
83 c-35 45 -69 82 -77 82 -12 0 -15 -21 -15 -115z"/>
<path d="M6117 2584 c-16 -17 10 -24 84 -24 64 0 79 3 79 15 0 12 -15 15 -78
15 -43 0 -82 -3 -85 -6z"/>
<path d="M6308 2585 c-10 -11 55 -225 69 -225 15 0 14 -1 40 90 l19 65 19 -75
c29 -109 45 -106 78 18 30 109 33 136 15 130 -7 -3 -21 -36 -33 -74 -11 -38
-23 -64 -26 -59 -3 6 -14 38 -24 73 -10 34 -24 62 -31 62 -7 0 -20 -26 -29
-57 -25 -92 -26 -92 -46 -33 -10 30 -18 63 -18 73 -1 16 -21 24 -33 12z"/>
<path d="M6680 2579 c0 -23 53 -204 63 -217 15 -18 22 -6 42 70 19 70 28 77
39 31 37 -152 49 -143 106 76 6 23 9 45 6 48 -15 16 -33 -12 -50 -78 l-19 -74
-22 75 c-30 101 -47 103 -70 11 -9 -39 -20 -69 -24 -66 -5 2 -16 34 -26 70
-11 40 -22 65 -31 65 -8 0 -14 -5 -14 -11z"/>
<path d="M7020 2573 c-54 -37 -71 -88 -47 -146 30 -70 130 -91 188 -39 25 23
33 38 36 78 5 47 3 53 -30 87 -29 32 -41 37 -78 37 -26 0 -55 -7 -69 -17z
m114 -35 c40 -35 43 -78 11 -116 -54 -64 -145 -30 -145 55 0 71 81 108 134 61z"/>
<path d="M7220 2474 c0 -105 2 -115 18 -112 12 2 18 15 20 46 4 58 31 57 66
-3 15 -25 33 -45 41 -45 20 0 19 12 -6 54 -19 33 -19 36 -4 66 19 37 12 86
-15 100 -10 6 -41 10 -69 10 l-51 0 0 -116z m110 66 c16 -30 -4 -60 -40 -60
-28 0 -30 2 -30 40 0 38 2 40 30 40 19 0 33 -7 40 -20z"/>
<path d="M7400 2475 c0 -132 -2 -129 101 -123 40 2 54 7 54 18 0 11 -15 16
-62 18 l-63 3 0 99 c0 82 -3 100 -15 100 -12 0 -15 -19 -15 -115z"/>
<path d="M7580 2476 c0 -130 3 -134 80 -117 101 23 133 129 60 202 -25 25 -36
29 -84 29 l-56 0 0 -114z m120 59 c51 -54 15 -145 -57 -145 l-33 0 0 85 0 85
33 0 c23 0 41 -8 57 -25z"/>
<path d="M6130 2475 c0 -12 14 -15 70 -15 56 0 70 3 70 15 0 12 -14 15 -70 15
-56 0 -70 -3 -70 -15z"/>
<path d="M6114 2379 c-12 -20 20 -29 91 -27 57 3 70 6 73 21 3 15 -6 17 -77
17 -48 0 -83 -4 -87 -11z"/>
<path d="M5895 2270 c-3 -5 -1 -10 4 -10 6 0 11 5 11 10 0 6 -2 10 -4 10 -3 0
-8 -4 -11 -10z"/>
<path d="M4617 2243 c-13 -12 -7 -23 18 -35 33 -15 32 -30 -1 -22 -19 5 -25 4
-20 -5 4 -6 20 -11 37 -11 23 0 29 4 29 21 0 12 -8 23 -20 26 -11 3 -20 10
-20 15 0 5 10 6 21 3 15 -5 19 -4 15 4 -8 12 -49 15 -59 4z"/>
<path d="M4871 2209 c-12 -40 -8 -69 5 -35 7 17 44 23 44 6 0 -5 4 -10 9 -10
16 0 -14 75 -31 78 -10 2 -19 -11 -27 -39z"/>
<path d="M5120 2210 c0 -23 5 -40 11 -40 6 0 9 9 6 20 -7 26 10 26 18 1 3 -11
12 -22 20 -25 12 -4 15 4 15 39 0 27 -5 45 -11 45 -6 0 -9 -9 -6 -20 3 -11 2
-20 -2 -20 -3 0 -12 9 -19 20 -19 31 -32 24 -32 -20z"/>
<path d="M5373 2239 c11 -6 17 -22 17 -45 0 -21 4 -33 10 -29 6 3 10 21 10 40
0 18 6 36 13 38 6 3 -6 6 -28 6 -32 0 -36 -2 -22 -10z"/>
<path d="M5602 2213 c3 -34 6 -38 32 -41 16 -2 32 2 37 10 12 18 11 68 -1 68
-5 0 -10 -10 -10 -22 0 -30 -15 -52 -29 -44 -6 4 -11 20 -11 37 0 16 -5 29
-11 29 -6 0 -9 -16 -7 -37z"/>
<path d="M5870 2214 c-7 -19 -9 -38 -5 -42 4 -4 10 -1 12 6 3 6 11 12 18 12 7
0 15 -6 18 -12 2 -7 8 -10 12 -6 11 10 -15 78 -30 78 -7 0 -19 -16 -25 -36z
m27 -6 c-3 -8 -6 -5 -6 6 -1 11 2 17 5 13 3 -3 4 -12 1 -19z"/>
<path d="M6120 2205 c0 -28 4 -44 10 -40 6 3 10 13 10 21 0 19 19 18 26 -1 11
-27 21 -16 20 23 -1 34 -3 37 -33 40 -33 3 -33 3 -33 -43z m50 20 c0 -8 -7
-15 -15 -15 -8 0 -15 7 -15 15 0 8 7 15 15 15 8 0 15 -7 15 -15z"/>
<path d="M6340 2204 c0 -27 4 -43 10 -39 6 3 10 24 10 46 0 21 -4 39 -10 39
-5 0 -10 -21 -10 -46z"/>
<path d="M6514 2236 c-3 -8 -4 -25 -2 -38 2 -19 9 -23 38 -23 33 0 35 2 35 35
0 32 -3 35 -33 38 -21 2 -34 -2 -38 -12z m51 -26 c0 -27 -22 -39 -31 -16 -8
22 3 49 19 43 6 -2 12 -14 12 -27z"/>
</g>
</svg>
